<svg fill="#ff4013" height="189px" width="189px" version="1.1" id="Capa_1" xmlns="http://www.w3.org/2000/svg" xmlns:xlink="http://www.w3.org/1999/xlink" viewBox="0 0 384.97 384.97" xml:space="preserve" stroke="#ff4013" stroke-width="12.70401" transform="rotate(0)matrix(1, 0, 0, 1, 0, 0)"><g id="SVGRepo_bgCarrier" stroke-width="0"></g><g id="SVGRepo_tracerCarrier" stroke-linecap="round" stroke-linejoin="round"></g><g id="SVGRepo_iconCarrier"> <g> <path d="M12.03,24.375h36.091h89.686h90.769v0.301c73.589,3.176,132.333,63.664,132.333,138.048 c0,74.371-58.744,134.872-132.333,138.048v0.301h-90.769H48.121h-7.675l39.628-39.628c4.68-4.68,4.68-12.331,0-17.011 c-4.68-4.68-12.331-4.68-17.011,0l-59.55,59.55c-2.418,2.418-3.525,5.618-3.453,8.806c-0.084,3.188,1.035,6.388,3.453,8.806 l59.55,59.55c4.68,4.68,12.331,4.68,17.011,0c4.68-4.68,4.68-12.331,0-17.011l-39.002-38.99h187.504 c0.71,0,1.311-0.289,1.985-0.409c85.956-4.211,154.409-75.021,154.409-162.012c0-89.698-72.711-162.409-162.409-162.409 c-1.624,0-3.2,0.192-4.824,0.241c-0.409-0.048-0.77-0.241-1.191-0.241H12.03C5.414,0.314,0,5.728,0,12.345 S5.414,24.375,12.03,24.375z"></path> <g> </g> <g> </g> <g> </g> <g> </g> <g> </g> <g> </g> </g> </g></svg>